<svg width="24" height="24" viewBox="0 0 24 24" fill="none" xmlns="http://www.w3.org/2000/svg">
<path d="M8.15267 11.5264C8.15267 9.40937 9.86837 7.69277 11.9854 7.69277C14.1024 7.69277 15.819 9.40937 15.819 11.5264C15.819 13.6434 14.1024 15.36 11.9854 15.36C9.86837 15.36 8.15267 13.6434 8.15267 11.5264ZM6.08017 11.5264C6.08017 14.7878 8.72387 17.4315 11.9854 17.4315C15.2468 17.4315 17.8905 14.7878 17.8905 11.5264C17.8905 8.26497 15.2468 5.62127 11.9854 5.62127C8.72387 5.62127 6.08017 8.26497 6.08017 11.5264ZM16.7442 5.38717C16.7442 6.14887 17.362 6.76757 18.1246 6.76757C18.8863 6.76757 19.505 6.14887 19.505 5.38717C19.505 4.62547 18.8872 4.00767 18.1246 4.00767C17.362 4.00767 16.7442 4.62547 16.7442 5.38717ZM7.33887 20.8871C6.21767 20.836 5.60837 20.6493 5.20327 20.4914C4.66637 20.2824 4.28367 20.0334 3.88057 19.6312C3.47827 19.229 3.22847 18.8463 3.02037 18.3094C2.86247 17.9044 2.67577 17.295 2.62467 16.1738C2.56887 14.9615 2.55777 14.5974 2.55777 11.5264C2.55777 8.45537 2.56987 8.09217 2.62467 6.87897C2.67577 5.75777 2.86337 5.14937 3.02037 4.74337C3.22937 4.20647 3.47827 3.82377 3.88057 3.42067C4.28277 3.01837 4.66547 2.76857 5.20327 2.56047C5.60837 2.40257 6.21767 2.21587 7.33887 2.16477C8.55117 2.10897 8.91527 2.09787 11.9854 2.09787C15.0564 2.09787 15.4196 2.10997 16.6328 2.16477C17.754 2.21587 18.3624 2.40347 18.7683 2.56047C19.3052 2.76857 19.688 3.01837 20.0911 3.42067C20.4933 3.82287 20.7423 4.20647 20.9513 4.74337C21.1092 5.14847 21.2959 5.75777 21.347 6.87897C21.4027 8.09217 21.4139 8.45537 21.4139 11.5264C21.4139 14.5965 21.4027 14.9606 21.347 16.1738C21.2959 17.295 21.1083 17.9044 20.9513 18.3094C20.7423 18.8463 20.4933 19.229 20.0911 19.6312C19.6889 20.0334 19.3052 20.2824 18.7683 20.4914C18.3633 20.6493 17.754 20.836 16.6328 20.8871C15.4205 20.9428 15.0564 20.954 11.9854 20.954C8.91527 20.954 8.55117 20.9428 7.33887 20.8871ZM7.24417 0.0960369C6.01987 0.151767 5.18377 0.345917 4.45277 0.630167C3.69657 0.923697 3.05567 1.31757 2.41567 1.95667C1.77654 2.59577 1.38268 3.23667 1.08914 3.99377C0.804891 4.72487 0.610751 5.56087 0.555021 6.78517C0.498351 8.01137 0.485352 8.40337 0.485352 11.5264C0.485352 14.6494 0.498351 15.0414 0.555021 16.2676C0.610751 17.4919 0.804891 18.3279 1.08914 19.059C1.38268 19.8151 1.77561 20.457 2.41567 21.0961C3.05477 21.7352 3.69567 22.1281 4.45277 22.4226C5.18477 22.7069 6.01987 22.901 7.24417 22.9567C8.47127 23.0125 8.86237 23.0264 11.9854 23.0264C15.1093 23.0264 15.5004 23.0134 16.7266 22.9567C17.9509 22.901 18.7869 22.7069 19.518 22.4226C20.2741 22.1281 20.9151 21.7352 21.5551 21.0961C22.1942 20.457 22.5871 19.8151 22.8816 19.059C23.1658 18.3279 23.3609 17.4919 23.4157 16.2676C23.4714 15.0405 23.4844 14.6494 23.4844 11.5264C23.4844 8.40337 23.4714 8.01137 23.4157 6.78517C23.36 5.56087 23.1658 4.72487 22.8816 3.99377C22.5871 3.23767 22.1942 2.59667 21.5551 1.95667C20.916 1.31757 20.2741 0.923697 19.5189 0.630167C18.7869 0.345917 17.9509 0.150847 16.7275 0.0960369C15.5013 0.0402969 15.1093 0.0263672 11.9863 0.0263672C8.86237 0.0263672 8.47127 0.0393669 7.24417 0.0960369Z" fill="white"/>
</svg>
