<svg width="21" height="20" viewBox="0 0 21 20" fill="none" xmlns="http://www.w3.org/2000/svg">
<path d="M14.3286 6.02637C15.92 6.02637 17.4461 6.65847 18.5713 7.78377C19.6965 8.90897 20.3287 10.4351 20.3287 12.0264V19.0265H16.3287V12.0264C16.3287 11.496 16.1179 10.9873 15.7429 10.6122C15.3678 10.2371 14.8591 10.0264 14.3286 10.0264C13.7982 10.0264 13.2895 10.2371 12.9144 10.6122C12.5393 10.9873 12.3286 11.496 12.3286 12.0264V19.0265H8.32863V12.0264C8.32863 10.4351 8.96073 8.90897 10.086 7.78377C11.2112 6.65847 12.7373 6.02637 14.3286 6.02637Z" fill="white"/>
<path d="M4.32812 7.02637H0.328125V19.0265H4.32812V7.02637Z" fill="white"/>
<path d="M2.32812 4.02686C3.43272 4.02686 4.32812 3.13146 4.32812 2.02686C4.32812 0.922256 3.43272 0.0268555 2.32812 0.0268555C1.22353 0.0268555 0.328125 0.922256 0.328125 2.02686C0.328125 3.13146 1.22353 4.02686 2.32812 4.02686Z" fill="white"/>
</svg>
